# xmcd CD database file
#
# Track frame offsets:
#	150
#	13218
#	24594
#	37412
#	46942
#	60191
#	78853
#	91818
#	103856
#	127631
#	138184
#	151907
#
# Disc length: 2222 seconds
#
# Revision: 1
# Processed by: cddbd v1.5.1PL0 Copyright (c) Steve Scherf et al.
# Submitted via: jetAudio 5
#
DISCID=8908ac0c
DTITLE=Roy Bookbinder - Goin' Back To Tampa
DYEAR=1900
DGENRE=
TTITLE0=Goin' Back To Tampa
TTITLE1=Hunkie Tunkie
TTITLE2=Church Bell Blues
TTITLE3=Biscuits
TTITLE4=Scandalous And A Shame
TTITLE5=Oh Glory, How Happy I Am
TTITLE6=Keep It Clean
TTITLE7=Kentucky Blues
TTITLE8=Travelin' Man
TTITLE9=Cocaine Habit
TTITLE10=Every Day Of The Week
TTITLE11=Friend Of Mine
EXTD=
EXTT0=
EXTT1=
EXTT2=
EXTT3=
EXTT4=
EXTT5=
EXTT6=
EXTT7=
EXTT8=
EXTT9=
EXTT10=
EXTT11=
PLAYORDER=
